# xmcd CD database file
#
# Track frame offsets:
#	150
#	13363
#	30563
#	47939
#	71056
#	89608
#	109821
#	128692
#	146337
#	161831
#	174012
#	191696
#	208312
#
# Disc length: 2991 seconds
#
# Revision: 0
# Processed by: cddbd v1.5.2PL0 Copyright (c) Steve Scherf et al.
# Submitted via: CDex 1.51
#
DISCID=bd0bad0d
DTITLE=Big George Brock - Heavyweight Blues
DYEAR=2007
DGENRE=Blues
TTITLE0=Walking Through The Park
TTITLE1=Smokestack Lightning
TTITLE2=Tiger In Your Tank
TTITLE3=Still A Fool (Two Trains Running)
TTITLE4=Trouble No More
TTITLE5=Young Fashioned Ways
TTITLE6=I Just Want To Make Love To You
TTITLE7=Howlin' For My Darling
TTITLE8=Tin Pan Alley
TTITLE9=Evil
TTITLE10=Who's Been Talkin'
TTITLE11=Can't Hold Out Much Longer
TTITLE12=You Don't Have To Go
EXTD=YEAR: 2007
EXTT0=
EXTT1=
EXTT2=
EXTT3=
EXTT4=
EXTT5=
EXTT6=
EXTT7=
EXTT8=
EXTT9=
EXTT10=
EXTT11=
EXTT12=
PLAYORDER=
